<?xml version="1.0" standalone="no"?>
<!DOCTYPE svg PUBLIC "-//W3C//DTD SVG 1.1//EN" "http://www.w3.org/Graphics/SVG/1.1/DTD/svg11.dtd" >
<svg xmlns="http://www.w3.org/2000/svg">
<metadata></metadata>
<defs>
<font id="meeraregular" horiz-adv-x="853" >
<font-face units-per-em="2048" ascent="1434" descent="-614" />
<missing-glyph horiz-adv-x="560" />
<glyph horiz-adv-x="0" />
<glyph unicode="&#xd;" horiz-adv-x="682" />
<glyph unicode=" "  horiz-adv-x="560" />
<glyph unicode="&#x09;" horiz-adv-x="560" />
<glyph unicode="&#xa0;" horiz-adv-x="560" />
<glyph unicode="!" horiz-adv-x="607" d="M303 -1v165h147v-165h-147zM303 1280h147v-593l-44 -388h-56q-45 384 -45 388z" />
<glyph unicode="&#x22;" horiz-adv-x="782" d="M301 1067v195h150v-195q-5 -28 -24 -115l-25 -120h-52l-24 120q-23 101 -25 115zM539 1067v195h147v-195q-5 -28 -23 -115l-24 -120h-54l-25 120q-21 101 -21 115z" />
<glyph unicode="#" horiz-adv-x="942" d="M68 349v101h204l58 331h-196v101h216l63 349h117l-68 -349h249l63 349h117l-67 -349h172v-101h-189l-61 -331h192v-101h-210l-69 -377h-115l68 377h-246l-70 -377h-113l68 377h-183zM384 450h249l59 331h-246z" />
<glyph unicode="$" horiz-adv-x="955" d="M104 360h121q12 -138 62.5 -205t195.5 -85v506q-182 54 -269 123t-87 222q0 302 356 346v95h83v-95q161 -13 254 -97.5t95 -232.5h-120q-4 96 -63 160.5t-166 66.5v-465q234 -63 311.5 -130.5t77.5 -220.5q0 -351 -389 -379v-181h-83v181q-190 13 -284.5 107t-94.5 284z M249 937q0 -169 234 -230v457q-234 -32 -234 -227zM566 70q263 30 264 256q0 184 -264 241v-497z" />
<glyph unicode="%" horiz-adv-x="1485" d="M125 913q0 124 84.5 208.5t208.5 84.5q122 0 206.5 -85.5t84.5 -207.5t-85.5 -207.5t-207.5 -85.5t-206.5 84.5t-84.5 208.5zM226 913q0 -80 55 -135t137 -55q80 0 135 55t55 135t-55 137t-135 57q-82 0 -137 -57t-55 -137zM413 -30l692 1281h91l-691 -1281h-92zM899 264 q0 122 85.5 208t208.5 86t206 -85t84 -210q0 -120 -85.5 -206.5t-207.5 -86.5t-206 86t-85 208zM1000 266q0 -81 55 -136.5t135 -55.5t137 55.5t57 135.5t-56 136.5t-136 56.5q-82 0 -137 -55.5t-55 -136.5z" />
<glyph unicode="&#x26;" horiz-adv-x="1107" d="M96 292q0 144 73 223t225 167q-152 190 -152 302t87 187.5t210 75.5t201.5 -73.5t78.5 -186.5t-63.5 -181t-189.5 -136l258 -314q62 110 64 220h123q-5 -159 -108 -316l209 -258h-165l-115 145q-192 -185 -366 -185t-272 92q-98 94 -98 238zM225 318q0 -100 72.5 -170.5 t175.5 -70.5q144 0 285 159l-300 373q-233 -148 -233 -291zM368 980q0 -78 85 -177l49 -56q199 125 199 235q0 72 -48 117t-119 45q-166 0 -166 -164z" />
<glyph unicode="'" horiz-adv-x="577" d="M301 1067v195h147v-195q-5 -28 -23 -115l-24 -120h-54l-25 120q-21 101 -21 115z" />
<glyph unicode="(" horiz-adv-x="500" d="M127 484q0 451 298 827h75q-246 -389 -246 -827t246 -827h-75q-298 376 -298 827z" />
<glyph unicode=")" horiz-adv-x="714" d="M138 -343q246 389 246 827t-246 827h77q297 -376 297 -827t-297 -827h-77z" />
<glyph unicode="*" horiz-adv-x="655" d="M123 982l27 85l199 -73l-10 211h94l-10 -211l199 73l27 -85l-204 -57l133 -168l-74 -54l-118 178l-118 -178l-72 52l129 170z" />
<glyph unicode="+" horiz-adv-x="955" d="M115 373v104h373v373h104v-373h373v-104h-373v-373h-104v373h-373z" />
<glyph unicode="," horiz-adv-x="385" d="M127 0v164h183v-204q0 -216 -183 -223v47q85 7 108 73q9 26 9 143h-117z" />
<glyph unicode="-" horiz-adv-x="555" d="M109 368v126h418v-126h-418z" />
<glyph unicode="." horiz-adv-x="432" d="M127 0v166h181v-166h-181z" />
<glyph unicode="/" horiz-adv-x="572" d="M74 -30l427 1316h137l-427 -1316h-137z" />
<glyph unicode="0" horiz-adv-x="964" d="M150 622q0 681 423 681t423 -667q0 -658 -423 -658t-423 644zM294 640q0 -547 274 -547q284 0 284 547q0 548 -279 548t-279 -548z" />
<glyph unicode="1" horiz-adv-x="561" d="M131 920v94q192 19 247.5 74.5t56.5 191.5h142v-1280h-145v920h-301z" />
<glyph unicode="2" horiz-adv-x="959" d="M131 868q17 435 426 435q181 0 298 -100.5t117 -300.5q0 -210 -171 -315l-166 -101q-216 -132 -273 -190t-64 -171h687v-125h-852q8 217 86 327.5t275 222.5l173 98q151 86 151 276q0 116 -74.5 190t-190.5 74q-250 0 -277 -320h-145z" />
<glyph unicode="3" horiz-adv-x="966" d="M122 373h145q22 -280 289 -280q288 0 288 275q0 209 -184 238q-19 3 -182 9l3 121q133 3 176 13q149 36 149 205q0 234 -249 234t-264 -280h-142q13 395 405 395q181 0 288.5 -87t107.5 -257q0 -198 -210 -280q135 -44 192 -119t57 -189q0 -186 -122.5 -289.5 t-318.5 -103.5q-388 0 -428 395z" />
<glyph unicode="4" horiz-adv-x="1006" d="M144 293v157l598 830h105v-862h195v-125h-195v-293h-145v293h-558zM254 418h448v633z" />
<glyph unicode="5" horiz-adv-x="959" d="M113 309h142q64 -216 283 -217q145 0 223 89t78 230q0 160 -78 244.5t-223 84.5q-144 0 -251 -120h-132l97 660h664v-125h-552l-58 -389q122 89 258 89q194 -1 308 -110t114 -309t-122 -329.5t-324 -129.5q-350 0 -427 332z" />
<glyph unicode="6" horiz-adv-x="985" d="M148 604q0 698 468 698q306 0 367 -314h-144q-49 199 -236 199q-309 0 -309 -547q125 166 311 166q187 0 296 -110t109 -294t-117.5 -304t-307.5 -120q-437 0 -437 626zM304 401q0 -127 77 -217.5t203 -90.5t203 86.5t77 216.5t-68.5 212.5t-200.5 82.5t-211.5 -80 t-79.5 -210z" />
<glyph unicode="7" horiz-adv-x="930" d="M82 1155v125h866v-120q-433 -566 -539 -1160h-151q57 424 551 1155h-727z" />
<glyph unicode="8" horiz-adv-x="947" d="M103 370q0 211 242 320q-103 64 -148 122.5t-45 151.5q0 160 110.5 249t277.5 89q163 0 274.5 -87.5t111.5 -250.5q0 -92 -44.5 -152.5t-149.5 -121.5q243 -109 243 -322q0 -179 -125 -284.5t-312 -105.5q-188 0 -311.5 106t-123.5 286zM249 366q0 -124 80.5 -198.5 t207.5 -74.5t210 73.5t83 197.5t-80.5 195t-209.5 71q-127 0 -209 -70t-82 -194zM297 967q0 -106 69 -164t173 -58t173 57t69 159q0 110 -67 168t-174 58t-175 -57t-68 -163z" />
<glyph unicode="9" horiz-adv-x="947" d="M122 884q0 182 118 300t304 118q427 0 427 -627q0 -697 -457 -697q-305 0 -361 314h143q47 -199 230 -199q309 0 309 539q-149 -160 -323 -160t-282 115t-108 297zM267 882q0 -133 71 -213.5t199 -80.5t208.5 82t80.5 207q0 133 -76.5 221.5t-204.5 88.5t-203 -86 t-75 -219z" />
<glyph unicode=":" horiz-adv-x="373" d="M147 0v166h181v-166h-181zM147 709v166h181v-166h-181z" />
<glyph unicode=";" horiz-adv-x="425" d="M162 0v164h183v-204q0 -216 -183 -223v47q83 7 108 73q9 32 9 143h-117zM163 709v166h181v-166h-181z" />
<glyph unicode="&#x3c;" horiz-adv-x="944" d="M86 412v110l861 364v-118l-730 -300l730 -302v-118z" />
<glyph unicode="=" horiz-adv-x="973" d="M115 253v108h850v-108h-850zM115 572v105h850v-105h-850z" />
<glyph unicode="&#x3e;" horiz-adv-x="969" d="M115 48v118l727 297l-727 305v118l856 -364v-110z" />
<glyph unicode="?" horiz-adv-x="939" d="M113 925q5 395 385 395q164 0 268.5 -86t104.5 -236t-92 -240l-178 -173q-54 -52 -54 -131v-80h-140v86q0 109 114 219l122 118q89 86 89 191q0 104 -69 159t-175 55q-241 0 -246 -277h-129zM407 18v162h140v-162h-140z" />
<glyph unicode="@" horiz-adv-x="1734" d="M127 491q0 351 255.5 600t609.5 249q290 0 518 -186t228 -464q0 -217 -140 -381.5t-334 -164.5q-162 0 -188 150q-128 -143 -256 -143t-205.5 93.5t-77.5 223.5q0 182 132.5 332t315.5 150q143 0 218 -175l45 138h124l-154 -483q-22 -69 -22 -102.5t30.5 -58t70.5 -24.5 q117 0 213 130t96 292q0 234 -191.5 396t-419.5 162q-313 0 -525 -210q-212 -209 -212 -481t192.5 -451.5t485.5 -179.5q140 0 336 54l42 -99q-192 -70 -386 -70q-317 0 -559 198t-242 505zM675 466q0 -85 51.5 -153t134.5 -68q129 0 210 153.5t81 289.5q0 75 -52 123 t-128 48q-120 0 -208.5 -124t-88.5 -269z" />
<glyph unicode="A" horiz-adv-x="1214" d="M111 0l457 1283h198l452 -1283h-162l-135 393h-519l-136 -393h-155zM435 511h447l-217 638z" />
<glyph unicode="B" horiz-adv-x="1081" d="M123 0v1280h523q182 0 279 -85t97 -229q0 -199 -198 -292q256 -91 256 -312q0 -167 -102 -264.5t-273 -97.5h-582zM268 125h420q113 0 181 60.5t68 172.5q0 150 -96 193t-229 43h-344v-469zM268 719h336q116 0 195 60t79 166q0 80 -65.5 145t-208.5 65h-336v-436z" />
<glyph unicode="C" horiz-adv-x="1199" d="M127 635q0 294 150 481.5t435 187.5q408 0 487 -398h-145q-63 273 -362 273q-219 0 -319.5 -158.5t-100.5 -382.5q0 -268 122.5 -402t312.5 -134q310 0 372 363h149q-64 -488 -524 -488q-244 0 -410.5 162.5t-166.5 495.5z" />
<glyph unicode="D" horiz-adv-x="1138" d="M127 0v1280h492q266 0 395 -182t129 -457q0 -370 -167.5 -505.5t-356.5 -135.5h-492zM270 125h322q405 0 405 515t-405 515h-322v-1030z" />
<glyph unicode="E" horiz-adv-x="1021" d="M125 0v1280h886v-125h-741v-436h715v-125h-715v-469h774v-125h-919z" />
<glyph unicode="F" horiz-adv-x="961" d="M125 0v1280h861v-125h-716v-436h629v-125h-629v-594h-145z" />
<glyph unicode="G" horiz-adv-x="1286" d="M121 625q0 304 163.5 491t452.5 187q453 0 533 -387h-147q-32 128 -135.5 195t-248.5 67q-236 0 -354.5 -152t-118.5 -383t121.5 -385.5t357.5 -154.5q182 0 301 110.5t119 292.5v47h-395v125h521v-666h-87l-44 182q-197 -216 -460 -216t-421 191.5t-158 455.5z" />
<glyph unicode="H" horiz-adv-x="1110" d="M125 0v1280h145v-561h697v561h143v-1280h-143v594h-697v-594h-145z" />
<glyph unicode="I" horiz-adv-x="293" d="M141 0v1280h145v-1280h-145z" />
<glyph unicode="J" horiz-adv-x="838" d="M127 306v103h145v-73q0 -234 213 -234t213 286v892h145v-952q0 -165 -96 -258t-262 -93t-262 86t-96 243z" />
<glyph unicode="K" horiz-adv-x="1099" d="M125 0v1280h145v-676l669 676h183l-521 -519l532 -761h-170l-467 675l-226 -226v-449h-145z" />
<glyph unicode="L" horiz-adv-x="912" d="M125 0v1280h145v-1155h650v-125h-795z" />
<glyph unicode="M" horiz-adv-x="1349" d="M127 0l10 1280h211l394 -1161l387 1161h222v-1280h-145v1149l-386 -1149h-160l-388 1149v-1149h-145z" />
<glyph unicode="N" horiz-adv-x="1146" d="M127 0v1283h174l703 -1091v1091h145v-1283h-182l-695 1086v-1086h-145z" />
<glyph unicode="O" horiz-adv-x="1356" d="M127 638q0 288 164.5 476.5t454.5 188.5t453.5 -189t163.5 -478t-168.5 -474t-451.5 -185t-449.5 186.5t-166.5 474.5zM272 639q0 -225 122 -381.5t347 -156.5q228 0 352.5 154.5t124.5 382.5t-120.5 384t-349.5 156t-352.5 -155t-123.5 -384z" />
<glyph unicode="P" horiz-adv-x="1041" d="M125 0v1280h530q389 0 389 -371q0 -162 -93.5 -259.5t-257.5 -97.5h-423v-552h-145zM270 677h361q118 0 193 60.5t75 178.5t-74 178.5t-194 60.5h-361v-478z" />
<glyph unicode="Q" horiz-adv-x="1342" d="M123 640q0 290 164.5 476.5t452.5 186.5t454.5 -186.5t166.5 -479.5t-192 -497l171 -138l-70 -84l-186 150q-157 -90 -342 -90q-288 0 -453.5 186t-165.5 476zM268 639q0 -224 117 -380t362 -156q118 0 228 62l-137 104l68 82l158 -126q152 168 152 406t-121 392.5 t-353 154.5q-230 0 -352 -154.5t-122 -384.5z" />
<glyph unicode="R" horiz-adv-x="1128" d="M125 0v1280h592q386 0 386 -337q0 -112 -50.5 -182.5t-167.5 -129.5q115 -49 154.5 -120t39.5 -199q0 -228 76 -288v-24h-183q-33 80 -33 331q0 230 -227 230h-442v-561h-145zM270 686h416q257 0 257 234t-257 235h-416v-469z" />
<glyph unicode="S" horiz-adv-x="1083" d="M90 404h138q5 -302 378 -302q347 0 347 241q0 156 -249 221l-324 84q-250 65 -250 289q0 183 129 274.5t332 91.5t330.5 -93t132.5 -282h-136q-9 250 -338 250q-139 0 -222 -50t-83 -166q0 -144 223 -203l330 -87q270 -71 270 -315q0 -192 -142 -286t-368 -94 q-220 0 -355.5 107t-142.5 320z" />
<glyph unicode="T" horiz-adv-x="1060" d="M92 1155v125h1006v-125h-431v-1155h-145v1155h-430z" />
<glyph unicode="U" horiz-adv-x="1106" d="M125 390v890h145v-890q0 -288 346 -288t347 288v890h145v-890q0 -199 -140 -306t-356 -107t-351.5 104t-135.5 309z" />
<glyph unicode="V" horiz-adv-x="1134" d="M94 1280h157l391 -1126l371 1126h152l-445 -1280h-164z" />
<glyph unicode="W" horiz-adv-x="1644" d="M88 1280h162l253 -1094l297 1094h160l307 -1094l246 1094h162l-324 -1280h-164l-307 1101l-300 -1101h-166z" />
<glyph unicode="X" horiz-adv-x="1154" d="M98 0l455 658l-427 622h176l342 -521l342 521h172l-432 -622l453 -658h-179l-361 552l-366 -552h-175z" />
<glyph unicode="Y" horiz-adv-x="1195" d="M94 1280h180l390 -645l379 645h171l-481 -777v-503h-145v503z" />
<glyph unicode="Z" horiz-adv-x="1054" d="M86 0v133l799 1022h-748v125h920v-138l-795 -1017h799v-125h-975z" />
<glyph unicode="[" horiz-adv-x="459" d="M127 -374v1654h326v-106h-193v-1442h193v-106h-326z" />
<glyph unicode="\" horiz-adv-x="572" d="M74 1286h137l427 -1316h-137z" />
<glyph unicode="]" horiz-adv-x="451" d="M84 -268h194v1442h-194v106h326v-1654h-326v106z" />
<glyph unicode="^" horiz-adv-x="722" d="M94 562l268 669h119l272 -669h-101l-230 566l-227 -566h-101z" />
<glyph unicode="_" horiz-adv-x="999" d="M35 -61h1054v-110h-1054v110z" />
<glyph unicode="`" horiz-adv-x="490" d="M178 1148h175l164 -261h-86z" />
<glyph unicode="a" horiz-adv-x="965" d="M102 243q0 123 72 182.5t289 92.5q170 25 223.5 44.5t53.5 115.5q0 150 -219 150t-243 -164h-131q18 279 370 279t352 -242v-537q0 -84 94 -84h23v-88q-57 -15 -94 -15q-131 0 -150 150q-176 -150 -324 -150t-232 67.5t-84 198.5zM240 245q0 -158 200 -158q170 0 235 79 t65 136v180q-54 -24 -144.5 -38t-158.5 -28q-197 -42 -197 -171z" />
<glyph unicode="b" horiz-adv-x="954" d="M129 0v1280h128v-516q121 179 311 179t289 -135t99 -337q0 -218 -104.5 -356t-296.5 -138q-186 0 -312 184v-161h-114zM257 459q0 -163 76.5 -265t211.5 -102t205 108.5t70 256.5t-69.5 259.5t-212.5 111.5t-212 -115t-69 -254z" />
<glyph unicode="c" horiz-adv-x="895" d="M123 464q0 212 110 345.5t303 133.5q329 0 364 -317h-130q-31 202 -236 202q-152 0 -213.5 -112t-61.5 -259t65 -256t216 -109q198 0 242 224h130q-17 -159 -115.5 -249t-262.5 -90q-202 0 -306.5 138t-104.5 349z" />
<glyph unicode="d" horiz-adv-x="949" d="M125 462q0 203 100 342t291 139t305 -169v506h128v-1280h-111v163q-132 -186 -324 -186t-290.5 141t-98.5 344zM259 459q0 -148 70 -257.5t213 -109.5q144 0 211.5 110.5t67.5 256.5t-65 257.5t-211 111.5q-145 0 -215.5 -112t-70.5 -257z" />
<glyph unicode="e" horiz-adv-x="953" d="M119 450q0 203 108 348t304 145t310.5 -112t117.5 -400h-706q3 -147 75 -243t218 -96q193 0 258 184h133q-67 -299 -396 -299q-208 0 -315 135t-107 338zM256 529h558q-1 123 -73 211t-200 88t-201 -88.5t-84 -210.5z" />
<glyph unicode="f" horiz-adv-x="524" d="M106 814v100h131v164q0 202 216 202q37 0 74 -5v-103h-42q-118 0 -118 -106v-152h160v-100h-160v-814h-130v814h-131z" />
<glyph unicode="g" horiz-adv-x="926" d="M123 466q0 205 106.5 341t281.5 136t302 -182v159h118v-762q0 -257 -84 -388.5t-328 -131.5q-330 0 -364 258h130q29 -142 227 -143q195 0 240.5 95t45.5 302q-117 -174 -298 -174t-279 142.5t-98 347.5zM255 460q0 -146 64.5 -257t210.5 -111t207 108t61 254 q0 374 -267 374q-145 0 -210.5 -111t-65.5 -257z" />
<glyph unicode="h" d="M123 0v1280h127v-513q138 176 316 176q130 0 209.5 -61t79.5 -181v-701h-127v641q0 91 -58 141.5t-151 50.5q-134 0 -201.5 -94.5t-67.5 -230.5v-508h-127z" />
<glyph unicode="i" horiz-adv-x="249" d="M121 1115v165h129v-165h-129zM123 0v916h127v-916h-127z" />
<glyph unicode="j" horiz-adv-x="326" d="M31 -252h26q145 0 145 130v1038h127v-1094q0 -184 -237 -184q-37 0 -61 5v105zM202 1115v165h127v-165h-127z" />
<glyph unicode="k" horiz-adv-x="861" d="M123 0v1280h127v-777l419 413h162l-317 -310l380 -606h-159l-325 515l-160 -155v-360h-127z" />
<glyph unicode="l" horiz-adv-x="247" d="M125 0v1280h127v-1280h-127z" />
<glyph unicode="m" horiz-adv-x="1339" d="M125 0v920h115v-161q131 184 301 184t250 -151q124 151 290 151q259 0 259 -250v-693h-127v636q0 197 -184 197q-103 0 -168.5 -76.5t-65.5 -179.5v-577h-127v636q0 197 -185 197q-100 0 -165.5 -76.5t-65.5 -179.5v-577h-127z" />
<glyph unicode="n" d="M123 0v920h116v-188q135 211 325 211q130 0 209.5 -61.5t79.5 -183.5v-698h-127v639q0 93 -57 143.5t-150 50.5q-136 0 -202 -95.5t-66 -229.5v-508h-128z" />
<glyph unicode="o" horiz-adv-x="951" d="M119 459q0 214 103 349t313 135t312 -135t102 -351t-103 -348t-311 -132t-312 134t-104 348zM253 461q0 -369 279 -369q284 0 284 364q0 372 -282 372q-281 0 -281 -367z" />
<glyph unicode="p" horiz-adv-x="940" d="M125 -362v1282h115v-168q126 191 321 191t289.5 -139t94.5 -344t-98 -344t-280 -139t-313 157v-496h-129zM254 442q0 -162 81 -256t193 -94q141 0 212.5 111.5t71.5 255.5q0 145 -67.5 257t-212.5 112q-146 0 -212 -112t-66 -274z" />
<glyph unicode="q" horiz-adv-x="942" d="M121 464q0 219 112 349t293 130q182 0 308 -172v149h111v-1282h-129v511q-120 -172 -310 -172t-287.5 134t-97.5 353zM253 457q0 -144 71.5 -254.5t216.5 -110.5q144 0 209.5 109.5t65.5 269.5t-74.5 258.5t-208.5 98.5q-135 0 -207.5 -113t-72.5 -258z" />
<glyph unicode="r" horiz-adv-x="556" d="M123 0v925h117v-198q132 216 276 216q19 0 49 -3v-112q-159 -4 -236 -99t-77 -251v-478h-129z" />
<glyph unicode="s" d="M113 271h137q29 -179 252 -179t223 154q0 102 -181 148l-206 52q-201 51 -201 233q0 143 99 203.5t252 60.5q327 0 335 -261h-138q-12 146 -212 146q-201 0 -201 -146q0 -93 207 -149l169 -46q213 -58 213 -238q0 -272 -370 -272q-369 0 -378 294z" />
<glyph unicode="t" horiz-adv-x="522" d="M100 820v100h134v258h128v-258h161v-100h-161v-642q0 -91 97 -91q39 0 64 2v-103q-67 -9 -116 -9q-173 0 -173 135v708h-134z" />
<glyph unicode="u" horiz-adv-x="855" d="M123 217v703h127v-644q0 -90 58 -141.5t151 -51.5q131 0 201 96.5t70 227.5v513h127v-920h-113v170q-142 -193 -328 -193q-129 0 -211 61.5t-82 178.5z" />
<glyph unicode="v" horiz-adv-x="891" d="M100 920h145l261 -786l276 786h144l-353 -920h-148z" />
<glyph unicode="w" horiz-adv-x="1277" d="M86 920h140l202 -766l186 766h165l194 -766l194 766h145l-270 -920h-152l-199 775l-190 -775h-150z" />
<glyph unicode="x" horiz-adv-x="859" d="M94 0l327 470l-307 450h142l234 -349l236 349h139l-309 -442l319 -478h-146l-244 372l-246 -372h-145z" />
<glyph unicode="y" horiz-adv-x="861" d="M96 920h138l248 -720l270 720h140l-415 -1096q-70 -186 -234 -186q-49 0 -91 20v112q40 -7 70 -7q97 0 132 99l58 164z" />
<glyph unicode="z" d="M117 0v122l571 688h-532v110h683v-117l-575 -693h601v-110h-748z" />
<glyph unicode="{" horiz-adv-x="526" d="M117 403v106q145 32 145 255v298q0 221 189 221h74v-94q-82 0 -113.5 -24.5t-31.5 -104.5v-323q0 -212 -169 -280q169 -74 169 -281v-321q0 -84 33 -107t112 -25v-94h-74q-189 0 -189 223v298q0 225 -145 253z" />
<glyph unicode="|" horiz-adv-x="335" d="M147 -371v1651h104v-1651h-104z" />
<glyph unicode="}" horiz-adv-x="504" d="M59 -277q84 2 116 25t32 107v321q0 207 170 279q-170 75 -170 282v323q0 80 -33 104.5t-115 24.5v94h77q192 0 192 -221v-298q0 -222 139 -255v-106q-139 -32 -139 -253v-298q0 -223 -192 -223h-77v94z" />
<glyph unicode="~" horiz-adv-x="910" d="M123 751q16 251 183 251q49 0 91 -27l212 -136q50 -32 96 -32q100 0 103 143h74v-17q0 -229 -175 -229q-84 0 -167 59l-145 103q-47 33 -91 33q-95 0 -108 -148h-73z" />
<glyph unicode="&#xad;" horiz-adv-x="0" />
<glyph unicode="&#x2000;" horiz-adv-x="682" />
<glyph unicode="&#x2001;" horiz-adv-x="1365" />
<glyph unicode="&#x2002;" horiz-adv-x="682" />
<glyph unicode="&#x2003;" horiz-adv-x="1365" />
<glyph unicode="&#x2004;" horiz-adv-x="455" />
<glyph unicode="&#x2005;" horiz-adv-x="341" />
<glyph unicode="&#x2006;" horiz-adv-x="227" />
<glyph unicode="&#x2007;" horiz-adv-x="227" />
<glyph unicode="&#x2008;" horiz-adv-x="170" />
<glyph unicode="&#x2009;" horiz-adv-x="273" />
<glyph unicode="&#x200a;" horiz-adv-x="75" />
<glyph unicode="&#x2010;" horiz-adv-x="555" d="M109 368v126h418v-126h-418z" />
<glyph unicode="&#x2011;" horiz-adv-x="555" d="M109 368v126h418v-126h-418z" />
<glyph unicode="&#x2012;" horiz-adv-x="555" d="M109 368v126h418v-126h-418z" />
<glyph unicode="&#x2013;" horiz-adv-x="1161" d="M109 368v126h1024v-126h-1024z" />
<glyph unicode="&#x2014;" horiz-adv-x="2185" d="M109 368v126h2048v-126h-2048z" />
<glyph unicode="&#x202f;" horiz-adv-x="273" />
<glyph unicode="&#x205f;" horiz-adv-x="341" />
<glyph unicode="&#x25fc;" horiz-adv-x="920" d="M0 0v920h920v-920h-920z" />
</font>
</defs>
</svg>
